<!DOCTYPE svg PUBLIC "-//W3C//DTD SVG 20010904//EN" "http://www.w3.org/TR/2001/REC-SVG-20010904/DTD/svg10.dtd">
<svg version="1.0" xmlns="http://www.w3.org/2000/svg" width="505px" height="536px" viewBox="0 0 5050 5360" preserveAspectRatio="xMidYMid meet">
<g id="layer1" fill="#759166" stroke="none">
 <path d="M2355 5130 c-3 -5 0 -13 8 -16 24 -9 162 0 162 11 0 14 -161 19 -170 5z"/>
 <path d="M2595 5130 c-3 -5 0 -13 8 -16 24 -9 162 0 162 11 0 14 -161 19 -170 5z"/>
 <path d="M2229 5126 c-2 -2 -24 -7 -49 -11 -25 -4 -49 -10 -54 -15 -13 -13 19 -24 42 -15 9 4 38 8 65 10 52 4 70 12 62 26 -6 9 -58 13 -66 5z"/>
 <path d="M2835 5120 c-7 -12 12 -23 25 -15 6 4 16 2 23 -3 7 -5 32 -13 57 -18 25 -4 54 -9 65 -11 11 -2 34 -5 50 -7 17 -2 40 -8 50 -13 11 -6 49 -18 84 -27 35 -9 90 -27 122 -40 36 -14 62 -20 65 -14 4 5 2 14 -2 18 -15 14 -256 91 -269 86 -7 -2 -17 0 -21 4 -20 20 -240 55 -249 40z"/>
 <path d="M2046 5088 c-22 -5 -45 -13 -51 -18 -7 -5 -14 -7 -17 -5 -9 9 -59 -15 -53 -25 7 -11 33 -9 54 4 8 5 32 11 55 13 39 3 77 26 59 35 -4 3 -26 1 -47 -4z"/>
 <path d="M1825 5023 c-38 -14 -74 -29 -79 -33 -13 -12 3 -33 17 -22 7 5 37 17 67 27 56 18 88 39 73 48 -4 3 -39 -6 -78 -20z"/>
 <path d="M1624 4941 c-117 -55 -177 -92 -166 -103 5 -5 37 7 78 29 38 21 77 39 86 41 29 5 108 53 102 63 -8 13 -11 12 -100 -30z"/>
 <path d="M3395 4970 c-3 -6 2 -13 12 -17 10 -3 30 -15 45 -25 27 -19 48 -17 48 3 0 5 -21 19 -46 29 -53 23 -51 23 -59 10z"/>
 <path d="M3517 4923 c-8 -7 11 -33 25 -33 5 0 41 -21 80 -46 44 -28 77 -43 87 -39 14 5 13 9 -7 23 -41 31 -179 102 -185 95z"/>
 <path d="M1416 4827 c-15 -11 -16 -15 -3 -25 11 -10 17 -9 27 3 18 22 0 39 -24 22z"/>
 <path d="M1351 4783 c-16 -11 -20 -18 -12 -26 8 -8 17 -5 32 10 26 25 11 38 -20 16z"/>
 <path d="M3735 4791 c-3 -5 9 -21 27 -34 62 -46 86 -58 92 -48 4 5 -18 28 -48 50 -60 45 -62 45 -71 32z"/>
 <path d="M1249 4711 c-154 -116 -328 -293 -452 -457 -46 -62 -63 -92 -56 -99 8 -7 15 -4 23 9 6 10 29 41 51 69 77 96 94 122 90 135 -3 7 0 10 5 7 6 -4 59 42 119 102 60 59 122 117 137 129 15 11 27 28 27 37 0 9 4 14 9 11 12 -8 49 26 42 37 -3 5 1 6 8 4 17 -7 85 49 71 58 -6 4 -39 -15 -74 -42z"/>
 <path d="M3876 4692 c-8 -14 31 -45 45 -36 7 4 10 3 6 -3 -7 -12 59 -85 92 -102 42 -23 29 9 -24 58 -73 66 -112 93 -119 83z"/>
 <path d="M4056 4532 c-6 -10 181 -208 194 -204 7 1 9 -2 5 -7 -3 -6 21 -46 54 -90 61 -83 131 -193 131 -207 0 -4 6 -15 14 -23 25 -29 111 -213 108 -231 0 -3 8 -16 17 -29 61 -81 -7 104 -99 269 -94 168 -172 275 -329 448 -74 81 -85 90 -95 74z"/>
 <path d="M2396 4523 c-4 -4 -13 -8 -19 -8 -7 0 -14 -4 -17 -9 -3 -5 79 -9 200 -9 119 0 204 4 202 9 -1 5 -11 9 -22 9 -10 0 -22 4 -26 8 -10 9 -309 9 -318 0z"/>
 <path d="M2275 4501 c-7 -12 12 -24 25 -16 11 7 4 25 -10 25 -5 0 -11 -4 -15 -9z"/>
 <path d="M2805 4501 c-8 -14 10 -22 53 -26 20 -2 48 -7 62 -13 14 -5 29 -8 33 -5 13 8 -14 34 -32 31 -9 -1 -22 1 -29 6 -20 12 -80 17 -87 7z"/>
 <path d="M2226 4491 c-4 -6 -12 -8 -20 -5 -7 3 -26 -1 -42 -7 -16 -7 -32 -12 -36 -11 -4 1 -25 -5 -47 -13 -23 -8 -45 -14 -49 -15 -4 0 -7 -6 -7 -12 0 -7 5 -13 10 -13 23 1 95 26 100 35 3 5 11 7 19 4 7 -3 26 1 42 7 16 7 34 13 39 13 6 1 11 5 13 11 5 13 -15 18 -22 6z"/>
 <path d="M3045 4441 c-7 -12 -2 -14 65 -40 72 -27 93 -10 24 20 -60 27 -81 32 -89 20z"/>
 <path d="M1972 4414 c-32 -22 -17 -37 19 -19 16 9 27 20 24 25 -8 14 -17 12 -43 -6z"/>
 <path d="M1813 4342 c-99 -51 -173 -105 -157 -114 5 -4 34 9 64 29 30 19 90 52 133 74 43 22 75 44 72 49 -9 15 -12 14 -112 -38z"/>
 <path d="M3195 4380 c-3 -5 29 -27 72 -49 43 -22 103 -55 133 -74 49 -32 79 -40 65 -17 -8 13 -116 83 -167 108 -26 12 -50 27 -53 32 -8 13 -42 13 -50 0z"/>
 <path d="M1600 4205 c-12 -13 -26 -22 -31 -20 -10 7 -50 -50 -42 -59 4 -4 0 -4 -9 -1 -18 7 -33 -9 -23 -25 3 -5 39 18 80 52 41 33 72 64 69 69 -9 14 -19 11 -44 -16z"/>
 <path d="M3476 4222 c-9 -14 117 -113 128 -101 6 5 1 18 -14 34 -18 19 -26 22 -37 13 -11 -9 -13 -8 -11 1 4 16 -58 65 -66 53z"/>
 <path d="M685 4089 c-70 -120 -115 -205 -118 -226 -1 -12 -8 -27 -13 -35 -20 -26 -53 -118 -44 -123 9 -6 40 34 44 57 1 7 8 24 15 36 7 13 10 26 7 30 -3 3 0 12 8 21 7 9 28 45 46 81 19 36 40 73 49 84 9 10 15 20 13 22 -4 7 30 69 45 80 13 9 13 12 0 23 -13 10 -21 3 -52 -50z"/>
 <path d="M3627 4094 c-4 -4 22 -37 57 -73 35 -36 75 -79 88 -95 16 -19 27 -25 32 -18 8 13 -62 94 -75 86 -5 -3 -6 2 -3 10 4 10 -10 30 -38 55 -45 42 -50 45 -61 35z"/>
 <path d="M1425 4051 c-64 -62 -159 -191 -148 -202 6 -6 22 8 44 38 18 27 64 80 101 119 59 62 72 84 49 84 -3 0 -24 -17 -46 -39z"/>
 <path d="M2488 4052 c-23 -10 -60 -59 -49 -66 5 -4 22 5 37 19 15 14 34 25 43 25 20 0 43 -14 43 -26 0 -5 4 -8 9 -6 5 1 10 -4 11 -10 0 -7 2 -17 3 -23 6 -23 7 -31 8 -50 3 -33 22 -27 24 8 4 90 -61 156 -129 129z"/>
 <path d="M2425 3908 c-9 -23 -2 -83 10 -83 14 0 19 75 6 88 -7 7 -12 5 -16 -5z"/>
 <path d="M3807 3894 c-3 -3 13 -34 36 -70 24 -38 44 -61 50 -55 8 8 3 20 -40 94 -13 23 -37 39 -46 31z"/>
 <path d="M2605 3830 c-4 -6 -3 -16 3 -22 6 -6 12 -6 17 2 4 6 3 16 -3 22 -6 6 -12 6 -17 -2z"/>
 <path d="M1233 3814 c-9 -25 13 -40 26 -16 10 19 6 32 -11 32 -5 0 -11 -7 -15 -16z"/>
 <path d="M3897 3753 c-4 -6 1 -21 11 -34 12 -13 21 -18 25 -12 4 6 -1 21 -11 34 -12 13 -21 18 -25 12z"/>
 <path d="M2614 3706 c-8 -21 3 -49 16 -41 5 3 10 15 10 25 0 25 -18 36 -26 16z"/>
 <path d="M2415 3687 c-9 -22 -2 -62 10 -60 6 1 11 14 13 29 4 32 -14 56 -23 31z"/>
 <path d="M4604 3686 c-4 -10 -2 -27 4 -39 6 -12 19 -46 28 -75 9 -29 20 -55 25 -57 4 -3 6 -12 3 -20 -3 -8 -2 -20 2 -27 4 -6 8 -21 9 -32 8 -97 29 -171 45 -161 10 6 4 68 -8 89 -3 5 -6 25 -8 44 -2 18 -8 40 -14 46 -5 7 -7 16 -4 19 4 3 3 14 -1 24 -5 10 -10 27 -12 38 -6 35 -45 150 -54 159 -5 6 -11 2 -15 -8z"/>
 <path d="M492 3674 c-18 -34 -74 -244 -69 -258 3 -7 1 -18 -5 -24 -13 -13 -2 -46 12 -37 6 4 10 14 9 23 -1 10 3 31 10 47 7 17 17 54 23 84 5 30 19 79 30 109 14 36 17 57 10 64 -7 7 -13 4 -20 -8z"/>
 <path d="M1142 3637 c-14 -17 -42 -87 -35 -87 3 0 0 -8 -8 -17 -15 -18 -63 -155 -63 -183 -1 -8 3 -16 9 -18 9 -3 63 146 69 190 1 9 7 22 12 30 34 47 50 126 16 85z"/>
 <path d="M3966 3621 c-4 -6 1 -25 11 -43 9 -18 18 -35 18 -38 1 -7 65 -201 72 -220 4 -8 5 -20 4 -27 -1 -6 3 -14 8 -17 5 -3 7 -15 4 -25 -3 -10 0 -22 6 -26 15 -9 26 24 13 37 -6 6 -8 16 -6 23 3 7 1 16 -5 19 -6 4 -8 13 -5 21 7 17 -41 170 -64 205 -9 14 -17 36 -18 49 -4 30 -29 58 -38 42z"/>
 <path d="M2626 3598 c-8 -22 -1 -68 9 -71 13 -3 17 70 4 78 -5 4 -11 0 -13 -7z"/>
 <path d="M2637 3484 c-9 -10 -9 -109 0 -118 4 -4 8 -13 8 -19 0 -7 5 -12 10 -12 6 0 9 28 7 70 -3 67 -11 93 -25 79z"/>
 <path d="M2405 3458 c-9 -24 -1 -103 10 -103 14 0 19 95 6 108 -7 7 -12 5 -16 -5z"/>
 <path d="M404 3326 c-11 -28 -10 -81 1 -84 15 -5 30 77 17 90 -8 8 -13 7 -18 -6z"/>
 <path d="M1015 3260 c-4 -6 -3 -16 3 -22 6 -6 12 -6 17 2 4 6 3 16 -3 22 -6 6 -12 6 -17 -2z"/>
 <path d="M2395 3248 c-10 -24 -1 -123 10 -121 14 4 19 113 6 126 -7 7 -12 5 -16 -5z"/>
 <path d="M2655 3248 c-9 -22 -2 -68 10 -71 14 -3 19 63 6 76 -7 7 -12 5 -16 -5z"/>
 <path d="M4715 3237 c-10 -24 8 -173 20 -167 6 3 9 38 7 85 -3 79 -15 115 -27 82z"/>
 <path d="M1005 3200 c-4 -6 -3 -16 3 -22 6 -6 12 -6 17 2 4 6 3 16 -3 22 -6 6 -12 6 -17 -2z"/>
 <path d="M4094 3196 c-4 -10 -2 -22 4 -28 8 -8 13 -7 18 6 4 10 2 22 -4 28 -8 8 -13 7 -18 -6z"/>
 <path d="M385 3158 c-10 -24 -1 -123 10 -121 14 4 19 113 6 126 -7 7 -12 5 -16 -5z"/>
 <path d="M1630 3144 c-42 -18 -96 -68 -117 -107 -18 -36 -25 -112 -13 -158 13 -48 79 -124 94 -109 8 8 6 16 -10 29 -26 21 -41 49 -59 107 -14 47 -14 62 3 104 15 35 76 100 95 100 9 0 18 4 21 8 8 14 99 14 137 0 38 -14 92 -69 103 -106 10 -29 113 -79 129 -63 7 7 -5 17 -41 32 -30 13 -54 30 -58 41 -10 34 -77 100 -119 119 -48 22 -118 24 -165 3z"/>
 <path d="M4104 3137 c-7 -20 -2 -47 11 -50 14 -3 19 43 6 56 -7 7 -12 6 -17 -6z"/>
 <path d="M995 3126 c-3 -9 -7 -22 -9 -30 -5 -16 17 -40 27 -29 11 10 8 61 -3 68 -6 3 -12 -1 -15 -9z"/>
 <path d="M2664 3126 c-8 -21 3 -49 16 -41 5 3 10 15 10 25 0 25 -18 36 -26 16z"/>
 <path d="M2385 3038 c-2 -7 -6 -48 -9 -92 -3 -43 -7 -81 -11 -84 -3 -3 -64 13 -136 36 -122 39 -158 44 -144 22 3 -5 44 -21 90 -35 47 -15 88 -31 91 -36 3 -6 13 -9 22 -7 10 1 32 -4 50 -11 38 -16 52 -8 56 33 1 14 6 29 9 33 11 10 8 141 -3 148 -6 3 -12 0 -15 -7z"/>
 <path d="M985 3028 c-7 -19 0 -68 10 -68 12 0 17 68 5 75 -6 3 -12 0 -15 -7z"/>
 <path d="M4114 3026 c-8 -21 3 -49 16 -41 5 3 10 15 10 25 0 25 -18 36 -26 16z"/>
 <path d="M4725 3030 c-3 -5 -5 -75 -4 -154 0 -80 -2 -150 -6 -156 -3 -6 -6 -25 -4 -43 1 -17 -4 -45 -10 -62 -7 -16 -11 -43 -10 -60 1 -16 -1 -37 -4 -45 -3 -8 -19 -67 -36 -130 -16 -63 -37 -132 -46 -153 -15 -37 -13 -63 5 -52 19 12 107 321 95 333 -3 3 0 10 5 17 5 6 11 34 14 62 2 28 7 56 11 62 3 6 5 27 4 46 -2 19 0 37 4 41 11 11 9 292 -2 299 -5 3 -12 1 -16 -5z"/>
 <path d="M2675 3017 c-9 -22 -2 -62 10 -60 6 1 11 14 13 29 4 32 -14 56 -23 31z"/>
 <path d="M984 2927 c-7 -20 -2 -47 11 -50 14 -3 19 43 6 56 -7 7 -12 6 -17 -6z"/>
 <path d="M4114 2927 c-7 -20 -2 -47 11 -50 14 -3 19 43 6 56 -7 7 -12 6 -17 -6z"/>
 <path d="M2686 2912 c-7 -12 -1 -47 9 -47 12 0 16 43 6 50 -5 3 -12 2 -15 -3z"/>
 <path d="M385 2878 c-9 -24 -1 -143 10 -143 13 0 19 135 6 148 -7 7 -12 5 -16 -5z"/>
 <path d="M4104 2816 c-8 -21 3 -49 16 -41 5 3 10 15 10 25 0 25 -18 36 -26 16z"/>
 <path d="M996 2813 c-12 -12 -6 -70 8 -82 20 -16 26 -1 19 43 -6 37 -15 51 -27 39z"/>
 <path d="M2694 2806 c-8 -21 3 -49 16 -41 5 3 10 15 10 25 0 25 -18 36 -26 16z"/>
 <path d="M1809 2777 c-29 -27 -107 -35 -154 -17 -34 13 -53 -1 -30 -20 18 -15 112 -19 154 -7 13 3 34 13 46 21 17 11 31 13 54 6 33 -9 49 1 28 18 -28 23 -71 22 -98 -1z"/>
 <path d="M1935 2760 c-7 -11 31 -28 74 -34 14 -2 34 -7 43 -10 9 -4 22 -9 30 -10 7 -2 20 -6 28 -9 55 -22 195 -56 203 -48 5 5 5 11 -1 15 -12 7 -179 57 -202 60 -8 1 -22 6 -31 10 -9 4 -20 6 -25 5 -5 -2 -26 5 -48 14 -44 19 -62 21 -71 7z"/>
 <path d="M2706 2741 c-8 -12 7 -21 72 -44 50 -17 79 -16 67 3 -3 5 -29 16 -58 26 -28 9 -57 19 -63 21 -7 2 -15 0 -18 -6z"/>
 <path d="M2865 2691 c-2 -5 2 -14 9 -20 18 -15 65 -19 65 -6 0 13 -67 36 -74 26z"/>
 <path d="M4084 2676 c-4 -9 -4 -20 0 -23 3 -3 1 -12 -6 -20 -6 -7 -8 -16 -5 -20 4 -3 2 -12 -4 -19 -5 -7 -11 -23 -13 -36 -1 -13 -6 -30 -9 -38 -25 -57 -45 -130 -36 -136 13 -7 22 1 25 23 2 8 12 38 24 65 11 27 18 53 15 59 -4 5 -1 16 5 24 7 8 10 21 7 30 -4 8 -2 17 4 20 5 4 9 12 8 18 -1 7 1 20 6 30 4 11 3 23 -3 29 -8 8 -13 7 -18 -6z"/>
 <path d="M395 2670 c-4 -6 -3 -16 3 -22 6 -6 12 -6 17 2 4 6 3 16 -3 22 -6 6 -12 6 -17 -2z"/>
 <path d="M1014 2665 c-8 -20 8 -53 22 -45 11 6 7 41 -6 54 -6 6 -12 3 -16 -9z"/>
 <path d="M2966 2661 c-9 -15 23 -36 35 -24 8 8 5 14 -9 22 -12 6 -23 7 -26 2z"/>
 <path d="M3035 2631 c-7 -12 19 -26 65 -36 19 -4 40 -11 46 -16 6 -5 24 -10 40 -12 16 -2 40 -8 54 -14 83 -34 162 -55 172 -45 13 13 20 9 -104 51 -49 16 -88 27 -88 24 0 -3 -6 -1 -12 4 -11 9 -146 53 -161 53 -3 0 -8 -4 -12 -9z"/>
 <path d="M2365 2618 c-10 -25 -1 -143 10 -141 16 4 22 133 8 145 -9 7 -14 6 -18 -4z"/>
 <path d="M404 2606 c-4 -9 -2 -22 4 -29 5 -6 8 -21 6 -31 -1 -11 0 -24 3 -29 3 -6 7 -25 9 -44 4 -40 12 -56 25 -48 12 8 11 28 -2 62 -7 15 -13 39 -14 53 -1 14 -4 27 -5 30 -1 3 -2 12 -1 22 3 22 -18 33 -25 14z"/>
 <path d="M1035 2577 c-4 -8 -1 -26 6 -39 7 -13 13 -30 14 -38 4 -38 49 -145 65 -155 6 -4 8 -10 5 -14 -2 -5 4 -27 15 -49 11 -23 20 -48 20 -57 0 -9 7 -18 15 -21 8 -4 15 -12 15 -19 0 -7 6 -18 13 -24 31 -25 24 6 -20 93 -26 50 -47 93 -48 96 -1 8 -36 100 -53 140 -8 19 -16 46 -18 59 -4 32 -21 49 -29 28z"/>
 <path d="M2726 2527 c-11 -8 -16 -23 -14 -35 4 -30 22 -33 26 -6 3 21 5 21 55 8 28 -7 53 -11 56 -9 2 3 10 0 18 -7 7 -6 16 -8 20 -5 3 4 11 3 17 -2 13 -11 190 -63 202 -59 5 1 19 -3 31 -10 12 -7 24 -8 27 -3 7 11 -22 36 -31 28 -3 -4 -11 -3 -17 2 -16 13 -197 63 -204 57 -3 -3 -11 -1 -18 4 -6 6 -16 10 -20 8 -5 -1 -19 3 -30 9 -12 7 -36 15 -54 18 -18 3 -36 8 -40 10 -4 2 -15 -1 -24 -8z"/>
 <path d="M3516 2471 c-4 -5 10 -19 29 -31 52 -32 42 -92 -19 -108 -32 -9 -34 -26 -3 -30 36 -5 87 47 87 88 0 50 -74 114 -94 81z"/>
 <path d="M2354 2437 c-3 -9 -3 -25 0 -34 6 -15 8 -15 24 0 15 16 15 18 0 34 -16 15 -18 15 -24 0z"/>
 <path d="M2727 2414 c-11 -11 -8 -72 3 -79 6 -4 8 -15 5 -25 -4 -13 5 -31 28 -57 71 -79 91 -156 67 -257 -13 -58 -24 -78 -69 -127 -29 -33 -60 -59 -70 -59 -9 0 -23 -6 -29 -12 -19 -19 -180 -17 -212 2 -14 8 -28 13 -32 12 -4 -1 -30 24 -59 56 -41 47 -55 71 -68 121 -17 67 -37 82 -34 25 4 -54 37 -118 88 -169 65 -66 122 -90 215 -90 93 0 150 24 215 90 66 65 89 122 89 215 0 86 -20 140 -76 206 -28 34 -35 51 -37 90 -1 48 -11 71 -24 58z"/>
 <path d="M3185 2401 c-6 -11 13 -26 22 -17 3 3 11 2 17 -3 11 -10 152 -51 165 -49 3 1 19 -4 34 -10 34 -14 44 -15 52 -3 7 12 -26 31 -63 36 -15 2 -60 13 -101 24 -41 11 -77 18 -82 16 -4 -3 -10 -1 -14 5 -8 13 -22 13 -30 1z"/>
 <path d="M456 2381 c-9 -14 50 -189 110 -325 208 -475 634 -902 1110 -1110 124 -55 311 -119 324 -111 5 3 12 1 15 -5 4 -6 14 -10 23 -9 10 1 30 -3 47 -10 16 -7 36 -10 45 -8 13 3 15 -9 12 -85 l-3 -90 -35 -14 c-46 -19 -111 -80 -133 -123 -20 -39 -33 -106 -24 -115 12 -12 33 17 33 46 0 68 53 135 127 158 21 7 43 17 49 21 7 6 12 47 13 102 2 82 0 95 -19 112 -11 10 -35 19 -52 20 -18 2 -40 6 -49 9 -9 4 -20 6 -25 5 -5 -2 -25 4 -44 12 -19 9 -50 19 -67 22 -18 4 -52 16 -75 27 -23 11 -45 20 -49 20 -9 0 -170 73 -211 96 -16 8 -28 12 -28 9 0 -3 -20 8 -44 25 -25 16 -49 30 -54 30 -5 0 -17 9 -27 20 -10 11 -21 20 -26 20 -4 0 -33 18 -65 40 -33 23 -70 48 -84 57 -14 10 -43 36 -65 58 -22 23 -67 61 -99 85 -34 26 -65 59 -73 77 -7 18 -26 39 -42 47 -16 9 -49 44 -74 78 -25 35 -55 74 -67 87 -21 23 -95 132 -153 225 -15 25 -30 55 -32 67 -2 12 -11 29 -20 39 -8 9 -15 20 -15 23 0 4 -9 26 -19 50 -43 93 -59 136 -85 222 -30 95 -39 114 -50 96z"/>
 <path d="M2356 2362 c-8 -13 0 -67 9 -65 12 4 16 61 6 68 -5 3 -12 2 -15 -3z"/>
 <path d="M3956 2292 c-32 -64 -36 -82 -15 -82 14 0 70 133 60 143 -6 6 -22 -16 -45 -61z"/>
 <path d="M2311 2238 c-33 -45 -67 -140 -56 -158 11 -18 22 -2 34 47 7 26 26 67 42 91 41 60 23 78 -20 20z"/>
 <path d="M3858 2118 c-50 -78 -54 -113 -7 -57 40 48 72 110 61 121 -4 4 -28 -23 -54 -64z"/>
 <path d="M1225 2141 c-3 -5 -1 -12 5 -16 6 -4 8 -10 5 -14 -2 -5 7 -19 20 -31 14 -13 25 -28 25 -33 0 -16 115 -150 198 -230 45 -43 81 -80 81 -83 1 -2 3 -4 7 -3 3 0 16 -6 29 -15 13 -9 26 -12 29 -7 3 5 -31 41 -77 80 -97 83 -161 154 -246 274 -35 48 -64 87 -66 87 -2 0 -6 -4 -10 -9z"/>
 <path d="M4555 2094 c-38 -89 -48 -107 -63 -126 -8 -9 -11 -21 -8 -27 4 -5 2 -12 -3 -16 -5 -3 -24 -31 -42 -63 -37 -65 -70 -112 -150 -215 -30 -40 -58 -80 -62 -89 -3 -10 -27 -32 -52 -50 -46 -32 -62 -59 -49 -79 4 -7 3 -9 -3 -6 -6 4 -21 -1 -34 -12 -21 -17 -22 -21 -10 -49 16 -37 36 -56 51 -47 7 4 3 17 -11 36 l-21 30 59 65 c32 36 80 90 106 122 78 92 249 352 231 352 -4 0 0 8 9 18 30 33 99 194 88 205 -7 7 -18 -8 -36 -49z"/>
 <path d="M3725 1939 c-33 -39 -79 -86 -103 -106 -30 -25 -40 -39 -33 -46 7 -7 28 6 68 44 81 75 147 159 136 170 -5 5 -33 -19 -68 -62z"/>
 <path d="M3525 1748 c-22 -17 -77 -55 -123 -85 -54 -36 -80 -59 -74 -65 11 -11 31 -1 109 55 31 22 51 43 47 49 -4 7 -3 8 4 4 6 -4 22 0 34 8 13 8 28 15 33 16 6 0 10 3 10 8 0 4 4 12 8 19 16 25 -10 20 -48 -9z"/>
 <path d="M1653 1688 c-3 -7 2 -17 11 -22 10 -6 37 -25 61 -43 34 -26 45 -30 54 -19 8 10 -4 22 -54 54 -43 27 -67 37 -72 30z"/>
 <path d="M1874 1559 c-3 -6 -3 -13 0 -17 16 -15 267 -105 274 -97 3 3 11 0 18 -5 6 -6 16 -10 20 -9 5 1 22 -3 37 -9 35 -15 54 -15 62 -2 8 13 -43 33 -67 27 -10 -3 -21 -1 -24 5 -3 5 -12 7 -20 4 -7 -3 -16 -1 -19 4 -3 5 -30 16 -59 24 -30 9 -91 32 -135 51 -50 21 -83 30 -87 24z"/>
 <path d="M3215 1557 c-11 -6 -24 -12 -30 -14 -11 -2 -123 -47 -165 -65 -14 -6 -36 -12 -49 -14 -13 -2 -29 -8 -34 -13 -17 -17 18 -24 45 -10 13 7 26 12 31 11 13 -4 165 58 176 72 7 8 20 12 30 9 21 -5 38 14 25 27 -5 5 -18 4 -29 -3z"/>
 <path d="M2865 1440 c-11 -4 -23 -6 -26 -4 -11 6 -31 -24 -20 -30 5 -4 12 -2 15 3 3 5 14 7 24 4 10 -2 24 2 31 10 15 19 3 27 -24 17z"/>
 <path d="M2305 1420 c-8 -12 20 -24 35 -15 6 3 8 11 5 16 -8 12 -32 12 -40 -1z"/>
 <path d="M2385 1410 c-3 -6 1 -13 9 -16 21 -8 49 3 41 16 -8 13 -42 13 -50 0z"/>
 <path d="M2695 1411 c-7 -13 17 -24 40 -19 9 1 16 8 16 13 0 14 -48 19 -56 6z"/>
 <path d="M4146 1292 c-3 -6 1 -15 8 -21 8 -7 17 -8 20 -3 3 6 -1 15 -8 21 -8 7 -17 8 -20 3z"/>
 <path d="M4177 1254 c-10 -10 44 -75 56 -67 6 3 7 1 3 -5 -4 -6 2 -24 14 -39 23 -32 31 -58 37 -124 8 -77 -22 -125 -143 -225 -57 -47 -101 -90 -98 -95 3 -5 12 -5 22 0 31 18 185 156 216 194 29 36 31 45 31 117 0 76 -1 79 -48 147 -51 76 -80 107 -90 97z"/>
 <path d="M3410 956 c-14 -8 -28 -12 -32 -10 -3 2 -9 0 -13 -6 -3 -5 -14 -10 -24 -10 -10 0 -34 -11 -54 -24 -19 -13 -37 -22 -40 -20 -5 5 -98 -19 -142 -36 -16 -7 -48 -13 -70 -14 -22 -2 -51 -8 -63 -15 -22 -12 -23 -17 -20 -113 2 -78 6 -102 18 -108 8 -4 29 -14 47 -22 30 -15 43 -14 43 3 0 5 -18 18 -40 29 l-40 20 0 84 0 84 45 6 c24 4 47 11 50 17 4 5 10 7 15 4 7 -4 114 24 160 42 8 3 22 7 31 9 35 7 171 70 171 79 -1 15 -15 15 -42 1z"/>
 <path d="M3477 964 c-6 -7 87 -124 100 -125 20 -1 9 22 -33 71 -49 58 -57 64 -67 54z"/>
 <path d="M3596 821 c-4 -5 8 -26 25 -46 24 -26 35 -33 43 -25 8 8 6 15 -8 25 -10 8 -23 12 -27 9 -5 -3 -6 1 -3 9 6 17 -21 43 -30 28z"/>
 <path d="M3686 712 c-6 -11 76 -91 96 -94 23 -2 33 -5 50 -13 43 -18 151 16 187 59 17 21 -6 32 -27 14 -44 -37 -87 -54 -117 -46 -16 4 -34 3 -38 -1 -12 -12 -71 21 -113 61 -18 16 -34 25 -38 20z"/>
 <path d="M3065 571 c-3 -6 7 -23 23 -39 16 -15 35 -38 42 -51 8 -16 15 -20 22 -13 7 7 4 19 -10 39 -32 45 -69 76 -77 64z"/>
 <path d="M3145 437 c-9 -22 -2 -62 10 -60 6 1 11 14 13 29 4 32 -14 56 -23 31z"/>
 <path d="M3146 258 c-3 -7 -6 -41 -8 -75 -5 -68 -39 -126 -85 -144 -34 -13 -959 -12 -983 1 -23 12 -40 -7 -19 -21 8 -5 238 -9 511 -9 l498 0 41 37 c50 45 69 89 69 159 0 49 -15 81 -24 52z"/>
 <path d="M1955 180 c-9 -14 2 -46 32 -98 34 -60 49 -40 18 22 -14 27 -25 55 -25 62 0 17 -17 27 -25 14z"/>
 </g>
<g id="layer2" fill="#679550" stroke="none">
 <path d="M2294 5127 c-8 -5 -36 -10 -62 -12 -26 -2 -55 -6 -64 -10 -10 -4 -24 -5 -32 -2 -7 3 -26 -1 -41 -9 -15 -8 -45 -16 -65 -18 -20 -1 -43 -7 -51 -12 -8 -5 -26 -9 -41 -10 -15 -1 -33 -6 -40 -11 -7 -6 -38 -18 -68 -28 -30 -10 -59 -20 -65 -24 -5 -3 -14 -6 -20 -6 -5 0 -38 -15 -72 -32 -35 -18 -63 -30 -63 -28 0 2 -32 -14 -71 -36 -40 -21 -75 -39 -80 -39 -13 0 -83 -50 -92 -66 -4 -8 -15 -14 -23 -14 -9 0 -29 -13 -46 -30 -16 -16 -36 -30 -43 -30 -8 0 -19 -9 -25 -20 -6 -11 -15 -20 -21 -20 -5 0 -74 -63 -151 -140 -78 -77 -146 -140 -150 -140 -5 0 -13 -10 -17 -22 -11 -26 -32 -55 -111 -155 -63 -78 -63 -78 -143 -233 -33 -63 -66 -122 -73 -131 -8 -9 -11 -18 -8 -22 4 -4 -1 -18 -10 -32 -9 -14 -14 -25 -10 -25 3 0 -6 -20 -20 -44 -14 -24 -23 -46 -20 -49 3 -3 -3 -30 -14 -59 -11 -30 -25 -79 -30 -109 -6 -30 -16 -67 -23 -84 -13 -33 -19 -66 -19 -105 0 -13 -6 -47 -14 -75 -10 -38 -12 -111 -10 -305 2 -140 6 -271 9 -290 3 -19 7 -44 9 -56 1 -11 6 -25 10 -32 4 -7 5 -12 2 -12 -3 0 1 -21 9 -48 8 -26 15 -61 15 -78 0 -16 4 -34 9 -40 5 -5 21 -49 37 -99 26 -86 42 -129 85 -222 10 -24 19 -46 19 -50 0 -3 7 -14 15 -23 9 -10 18 -27 20 -39 2 -12 17 -42 32 -67 71 -114 137 -211 159 -232 13 -13 24 -29 24 -36 0 -17 121 -146 137 -146 6 0 14 -11 17 -25 6 -23 129 -135 148 -135 4 0 8 -6 8 -12 0 -13 47 -55 100 -90 14 -9 51 -35 84 -57 32 -23 61 -41 65 -41 5 0 16 -9 26 -20 10 -11 22 -20 27 -20 5 0 29 -14 54 -30 24 -17 44 -28 44 -25 0 3 17 -4 37 -15 21 -11 41 -20 46 -20 4 0 24 -11 45 -24 20 -12 41 -23 45 -24 10 0 59 -19 112 -42 22 -10 51 -20 65 -24 34 -9 131 -38 150 -44 8 -3 22 -4 31 -3 9 1 28 -3 43 -9 27 -10 27 -10 25 -104 l-1 -94 -40 -11 c-77 -23 -148 -110 -148 -180 0 -16 -4 -33 -10 -36 -5 -3 -10 -43 -10 -89 0 -84 19 -152 67 -236 l20 -35 518 -3 519 -2 32 31 c58 56 65 84 68 252 3 124 0 157 -13 177 -23 38 -84 105 -96 105 -5 1 -20 6 -32 13 -12 7 -28 12 -36 12 -11 0 -15 20 -16 94 -1 53 2 97 8 100 5 4 29 9 53 12 24 3 61 11 83 19 22 8 54 16 70 19 34 4 53 10 110 37 38 17 60 25 78 28 4 0 20 7 37 16 49 25 71 19 118 -32 23 -26 42 -53 42 -60 0 -7 9 -18 20 -25 11 -7 20 -18 20 -25 0 -7 9 -17 20 -23 11 -6 20 -16 20 -23 0 -16 94 -98 142 -126 21 -11 39 -16 45 -10 4 4 22 5 38 1 22 -6 39 -3 72 16 24 13 45 28 48 33 4 5 15 9 25 9 10 0 25 8 32 18 7 10 38 38 68 63 155 126 193 181 189 273 -2 45 -16 82 -54 145 -5 9 -22 30 -37 46 -16 17 -28 36 -28 43 0 7 -6 15 -14 18 -8 3 -16 14 -19 25 -3 11 -14 23 -25 26 -17 4 -42 41 -42 62 0 4 11 13 25 19 14 6 25 18 25 27 0 8 21 34 46 57 25 24 60 63 77 88 17 25 34 47 38 50 7 5 37 48 120 171 47 70 83 134 81 143 -2 5 3 16 11 25 7 9 18 27 24 41 55 121 74 168 101 255 17 55 39 129 48 165 16 62 20 86 43 245 20 142 14 538 -9 620 -5 17 -11 46 -14 65 -14 99 -52 238 -76 282 -6 10 -10 29 -10 44 0 14 -9 38 -19 52 -10 15 -19 30 -20 34 -8 43 -81 200 -107 229 -8 8 -14 20 -14 26 0 14 -153 245 -174 262 -9 7 -16 18 -16 23 0 5 -21 30 -47 56 -27 26 -80 81 -119 122 -90 94 -182 180 -193 180 -5 0 -16 11 -25 25 -9 14 -23 25 -30 25 -8 0 -28 11 -44 25 -17 14 -35 25 -41 25 -5 0 -15 9 -21 20 -6 11 -23 23 -38 27 -14 3 -57 26 -93 50 -37 23 -72 43 -77 43 -5 0 -15 7 -22 15 -7 8 -18 14 -24 13 -6 -1 -33 9 -61 22 -27 13 -57 25 -65 27 -8 1 -52 16 -98 32 -46 17 -90 31 -98 31 -8 0 -31 7 -52 16 -20 9 -50 18 -67 20 -16 2 -39 5 -50 7 -91 16 -111 20 -120 26 -15 9 -41 10 -318 13 -142 2 -265 -1 -273 -5z m419 -623 c7 -7 33 -11 120 -18 27 -2 53 -8 59 -14 6 -6 17 -8 24 -5 8 3 20 1 27 -5 13 -10 83 -34 107 -36 26 -2 119 -37 125 -47 4 -5 14 -9 23 -9 37 0 237 -115 255 -146 4 -8 14 -14 22 -14 7 0 26 -13 42 -29 16 -15 38 -31 48 -35 11 -3 25 -16 30 -28 6 -12 19 -26 29 -32 20 -12 86 -74 86 -81 0 -3 18 -24 40 -46 22 -23 40 -46 40 -51 0 -5 14 -23 31 -40 30 -31 48 -61 107 -184 16 -34 34 -64 40 -68 6 -3 14 -21 18 -38 3 -18 12 -42 20 -53 17 -27 62 -171 67 -215 3 -19 7 -42 10 -50 3 -8 6 -23 7 -32 3 -45 7 -74 13 -88 3 -8 6 -33 6 -55 0 -22 0 -80 1 -130 0 -119 -3 -177 -13 -192 -4 -6 -8 -35 -8 -63 -1 -28 -5 -53 -10 -56 -4 -2 -6 -11 -3 -18 3 -8 0 -17 -5 -21 -6 -3 -9 -11 -5 -16 3 -6 2 -18 -2 -27 -4 -9 -8 -28 -9 -42 -2 -14 -17 -55 -34 -91 -17 -36 -31 -71 -31 -78 0 -25 -138 -268 -170 -300 -9 -9 -35 -43 -57 -76 -40 -59 -154 -175 -172 -175 -6 0 -19 -13 -30 -29 -11 -16 -36 -36 -56 -45 -19 -9 -35 -21 -35 -27 0 -5 -8 -13 -17 -16 -10 -4 -38 -21 -63 -39 -25 -17 -57 -34 -71 -37 -14 -4 -42 -18 -63 -32 -20 -14 -43 -25 -51 -25 -8 0 -16 -4 -20 -9 -6 -11 -161 -72 -172 -69 -5 1 -17 -3 -28 -9 -11 -5 -35 -11 -53 -11 -18 0 -40 -6 -48 -12 -7 -7 -20 -10 -29 -7 -8 4 -17 3 -19 -2 -3 -4 -19 -6 -36 -3 -16 2 -36 -1 -43 -7 -7 -5 -33 -10 -58 -10 -24 1 -84 1 -134 2 -82 0 -134 2 -222 9 -17 2 -35 6 -39 10 -4 4 -17 5 -28 2 -12 -3 -35 0 -51 7 -17 7 -34 13 -40 14 -5 1 -12 3 -15 4 -3 2 -14 4 -25 5 -34 4 -178 56 -225 81 -25 13 -81 42 -125 63 -44 22 -102 59 -129 83 -28 24 -51 43 -53 41 -14 -11 -209 175 -263 251 -18 26 -37 47 -42 47 -4 0 -8 4 -8 9 0 6 -13 30 -30 54 -16 25 -30 50 -30 55 0 6 -6 15 -13 19 -14 9 -32 37 -48 73 -22 53 -42 97 -60 135 -23 49 -49 124 -47 133 1 4 -4 17 -11 30 -7 13 -10 29 -8 37 3 7 0 24 -7 37 -7 14 -13 44 -13 66 0 23 -5 48 -12 55 -6 8 -11 41 -11 73 1 33 -1 95 -3 139 -2 44 0 88 5 99 6 11 6 22 0 28 -7 7 -7 21 0 42 6 17 12 47 14 66 7 57 10 74 17 90 4 8 9 35 11 60 5 45 43 172 61 200 5 8 10 20 11 25 3 18 34 79 79 155 24 41 44 81 45 88 0 6 5 12 10 12 6 0 16 12 22 28 7 15 35 56 63 92 28 36 56 72 61 80 5 8 16 15 24 15 8 0 15 7 15 15 0 8 9 19 21 25 11 5 46 35 77 66 31 30 69 62 84 70 15 8 42 28 60 44 30 29 210 125 234 125 6 0 26 9 44 20 19 11 37 20 42 19 4 -1 26 6 47 15 22 10 49 19 60 21 12 1 34 8 50 14 16 7 35 10 42 7 8 -3 16 -1 19 4 3 5 13 9 23 9 9 0 37 3 62 6 25 4 53 8 62 9 10 1 21 5 24 9 9 9 308 9 317 1z"/>
 <path d="M2498 4044 c-4 -3 -14 -7 -23 -8 -29 -4 -49 -57 -51 -136 -1 -41 -5 -127 -8 -190 -4 -63 -9 -173 -11 -245 -3 -71 -7 -182 -10 -245 -2 -63 -4 -161 -4 -216 0 -61 -4 -104 -10 -108 -5 -4 -8 -12 -6 -19 3 -7 0 -19 -5 -27 -9 -13 -12 -13 -20 1 -6 10 -20 15 -37 13 -15 -1 -32 1 -38 5 -5 5 -44 19 -85 31 -41 13 -91 31 -110 41 -19 10 -51 21 -70 23 -49 7 -100 34 -110 60 -17 43 -78 102 -119 115 -44 13 -129 12 -137 -1 -3 -4 -14 -8 -24 -8 -21 0 -97 -82 -112 -120 -17 -42 -17 -57 -3 -103 18 -61 39 -96 75 -131 33 -32 43 -35 137 -41 55 -3 67 -1 92 21 22 19 36 23 60 18 17 -4 34 -11 37 -15 3 -5 18 -9 33 -9 16 0 46 -8 67 -17 22 -9 43 -16 48 -14 5 1 16 -1 25 -5 9 -4 23 -9 31 -10 35 -5 188 -54 225 -73 l41 -20 -8 -87 c-4 -48 -5 -91 -2 -96 3 -5 1 -14 -5 -21 -5 -7 -8 -34 -7 -60 2 -26 0 -50 -5 -53 -5 -3 -9 -14 -9 -24 0 -11 -9 -24 -21 -30 -11 -7 -18 -14 -15 -18 3 -3 0 -15 -8 -26 -7 -12 -20 -46 -29 -76 -14 -51 -14 -60 3 -125 15 -61 25 -79 79 -137 34 -37 65 -67 69 -66 4 1 18 -4 32 -12 32 -19 193 -21 211 -3 7 7 21 13 30 13 10 0 46 31 80 68 56 60 65 76 79 137 14 57 14 78 5 120 -16 65 -41 113 -78 147 -19 18 -27 34 -23 44 4 9 1 23 -5 30 -7 9 -9 32 -5 64 4 32 2 56 -5 68 -13 20 -5 57 9 48 5 -3 24 -8 42 -11 18 -3 42 -11 54 -18 11 -6 25 -10 30 -9 4 2 14 -2 20 -8 7 -5 15 -7 18 -4 7 6 189 -45 202 -56 5 -5 14 -6 21 -4 7 3 16 1 20 -5 3 -6 17 -11 30 -11 13 0 27 -5 30 -10 4 -6 10 -8 14 -5 5 2 41 -5 82 -16 41 -11 86 -22 101 -24 15 -2 40 -10 55 -18 53 -26 134 22 133 80 -1 43 -89 104 -170 119 -37 6 -148 40 -190 57 -14 6 -38 12 -54 14 -16 2 -34 7 -40 12 -6 5 -28 12 -48 16 -21 4 -42 13 -49 21 -6 8 -24 14 -40 14 -15 0 -31 5 -34 10 -3 6 -18 10 -33 10 -15 0 -44 9 -64 19 -19 11 -38 18 -41 15 -2 -3 -30 3 -61 14 -31 10 -53 22 -49 25 3 4 1 12 -5 20 -6 7 -11 28 -11 47 1 19 -2 60 -6 90 -6 57 -14 155 -18 225 -1 22 -5 45 -9 50 -4 6 -7 40 -7 75 -1 70 -4 95 -16 123 -4 10 -5 47 -2 82 3 34 3 66 -1 70 -4 4 -8 32 -9 63 -2 67 -12 202 -18 252 -3 19 -7 51 -9 70 -3 19 -5 35 -6 35 -1 0 -3 11 -4 24 -5 43 -85 99 -108 75z"/>
 <path d="M2317 3 c133 -2 353 -2 490 0 136 1 28 2 -242 2 -269 0 -381 -1 -248 -2z"/>
 </g>

</svg>